# xmcd
#
# Track frame offsets: 
#        150
#        13840
#        28520
#        42345
#        56802
#        70892
#        84387
#        97720
#        112505
#        126150
#        142287
#        157465
#        172390
#
# Disc length: 2477 seconds
#
# Revision: 4
# Processed by: cddbd v1.5.2PL0 Copyright (c) Steve Scherf et al.
# Submitted via: ExactAudioCopy v0.99pb4
#
DISCID=b609ab0d
DTITLE=Louis Armstrong - West End Blues
DYEAR=1990
DGENRE=Jazz
TTITLE0=Alligator Crawl
TTITLE1=Wild Man Blues
TTITLE2=Melancholy Blues
TTITLE3=Willie The Weeper
TTITLE4=Ory's Creole Trombone
TTITLE5=Struttin' With Some Barbecue
TTITLE6=Hotter Than That
TTITLE7=West End Blues
TTITLE8=Potato Head Blues
TTITLE9=Keyhole Blues
TTITLE10=Gully Low Blues
TTITLE11=Basin Street Blues
TTITLE12=S.O.L. Blues
EXTD=ID3G: 0
EXTT0=
EXTT1=
EXTT2=
EXTT3=
EXTT4=
EXTT5=
EXTT6=
EXTT7=
EXTT8=
EXTT9=
EXTT10=
EXTT11=
EXTT12=
PLAYORDER=
